# xmcd
#
# Track frame offsets:
#	150
#	13829
#	29424
#	41995
#	57010
#	75662
#	92959
#	105577
#	124448
#	139833
#	159416
#	170217
#	188237
#	201537
#	215891
#	234566
#	251980
#	275137
#	289650
#	303892
#	316865
#	335160
#
# Disc length: 4700 seconds
#
# Revision: 1
# Processed by: cddbd v1.5.2PL0 Copyright (c) Steve Scherf et al.
# Submitted via: audiograbber 1.82.02
#
DISCID=5e125a16
DTITLE=Olika artister - Skön Svensk Country CD 2
DYEAR=2006
DGENRE=Country
TTITLE0=Crazy in love - Jill Johnson
TTITLE1=Peta in en pinne i brasan - Rankarna
TTITLE2=Jackson - Elisabeth Andreasson and Lee Hazelwood
TTITLE3=Lifetime of guilt - The Refreshments
TTITLE4=Hundar, ungar och hembryggt äppelvin - Alf Robertson
TTITLE5=I washed my hands in muddy water - Carina Jaarnek
TTITLE6=Jolene - Tanja
TTITLE7=A violin that never has been played
TTITLE8=Morning train - Elisabeth Andreasson
TTITLE9=Bottom line - Johan Blohm and Eva Eastwood
TTITLE10=Will the circel be unbroken - Mats Rådberg and Rankarna
TTITLE11=Har jag sagt till dig - Hasse Andersson
TTITLE12=Hej gamle väg - Sigge Hill
TTITLE13=I should be sleeping - Monia
TTITLE14=Fools fall in love - Dixie n´ Dave
TTITLE15=Crocodile shoes - Mats Rådberg
TTITLE16=Johannestown - Eva Eastwood
TTITLE17=Take me home country road - Chrisina Lindberg
TTITLE18=Hembränt och årgångsvin - Red Jenkins
TTITLE19=Lasse och Marie - Alf Robertson
TTITLE20=Eva-Lena - Hasse Andersson
TTITLE21=US of A - Kikki Danielsson
EXTD=
EXTT0=
EXTT1=
EXTT2=
EXTT3=
EXTT4=
EXTT5=
EXTT6=
EXTT7=
EXTT8=
EXTT9=
EXTT10=
EXTT11=
EXTT12=
EXTT13=
EXTT14=
EXTT15=
EXTT16=
EXTT17=
EXTT18=
EXTT19=
EXTT20=
EXTT21=
PLAYORDER=
